<svg xmlns="http://www.w3.org/2000/svg" xmlns:xlink="http://www.w3.org/1999/xlink" width="500" zoomAndPan="magnify" viewBox="0 0 375 374.999991" height="500" preserveAspectRatio="xMidYMid meet" version="1.0"><defs><clipPath id="83b017d255"><path d="M 47 47.507812 L 309 47.507812 L 309 327.257812 L 47 327.257812 Z M 47 47.507812 " clip-rule="nonzero"/></clipPath></defs><g clip-path="url(#83b017d255)"><path fill="#000000" d="M 66.042969 327.257812 C 70.402344 327.257812 74.765625 325.511719 78.257812 322.894531 C 78.691406 322.894531 79.128906 322.457031 79.566406 322.019531 L 169.871094 231.679688 L 199.972656 261.792969 C 200.84375 262.667969 201.714844 263.101562 203.023438 263.101562 C 204.332031 263.101562 205.207031 262.667969 206.078125 261.792969 C 329.101562 138.722656 306.851562 54.925781 305.980469 51 C 305.542969 49.691406 304.234375 48.378906 302.925781 47.945312 C 301.617188 47.507812 299.875 47.945312 298.566406 49.253906 L 146.3125 201.566406 C 146.3125 201.566406 146.3125 202.003906 145.875 202.003906 C 145.441406 202.003906 145.441406 202.003906 145.441406 202.4375 L 52.953125 294.960938 C 45.539062 302.382812 45.539062 314.164062 52.953125 321.582031 C 56.445312 325.511719 61.242188 327.257812 66.042969 327.257812 Z M 298.566406 61.472656 C 299.4375 70.636719 299.875 87.222656 293.765625 109.480469 C 285.476562 141.339844 262.792969 191.964844 203.023438 252.628906 L 155.472656 204.621094 Z M 59.0625 301.070312 L 149.367188 210.730469 L 163.761719 225.132812 L 74.332031 315.039062 C 73.894531 315.039062 73.894531 315.472656 73.457031 315.472656 C 69.53125 319.402344 62.988281 319.402344 59.0625 315.472656 C 55.136719 311.546875 55.136719 305 59.0625 301.070312 Z M 59.0625 301.070312 " fill-opacity="1" fill-rule="nonzero"/></g><path fill="#000000" d="M 275.007812 129.121094 C 275.441406 129.121094 275.878906 129.554688 276.316406 129.554688 C 278.0625 129.554688 279.804688 128.683594 280.242188 126.5 C 284.605469 114.71875 288.09375 102.933594 290.277344 91.148438 C 290.710938 88.96875 289.402344 86.347656 286.785156 85.914062 C 285.039062 85.914062 282.421875 87.222656 281.988281 89.40625 C 279.804688 100.316406 276.316406 111.664062 272.390625 123.445312 C 271.515625 125.628906 272.390625 128.246094 275.007812 129.121094 Z M 275.007812 129.121094 " fill-opacity="1" fill-rule="nonzero"/></svg>