<svg xmlns="http://www.w3.org/2000/svg" xmlns:xlink="http://www.w3.org/1999/xlink" width="500" zoomAndPan="magnify" viewBox="0 0 375 374.999991" height="500" preserveAspectRatio="xMidYMid meet" version="1.0"><defs><clipPath id="ebaff9ae22"><path d="M 43.988281 161 L 331.246094 161 L 331.246094 288.992188 L 43.988281 288.992188 Z M 43.988281 161 " clip-rule="nonzero"/></clipPath><clipPath id="3c5da93bbe"><path d="M 79 86.0625 L 296 86.0625 L 296 254 L 79 254 Z M 79 86.0625 " clip-rule="nonzero"/></clipPath></defs><g clip-path="url(#ebaff9ae22)"><path fill="#040606" d="M 187.617188 288.992188 C 107.082031 288.992188 43.988281 257.410156 43.988281 217.101562 C 43.988281 195.375 62.707031 175.183594 95.398438 161.679688 C 98.460938 160.429688 101.929688 161.859375 103.203125 164.921875 C 104.453125 167.984375 103.027344 171.480469 99.964844 172.734375 C 71.988281 184.296875 55.949219 200.484375 55.949219 217.101562 C 55.949219 249.574219 116.261719 277.019531 187.617188 277.019531 C 258.972656 277.019531 319.261719 249.574219 319.261719 217.101562 C 319.261719 200.484375 303.21875 184.296875 275.242188 172.734375 C 272.183594 171.507812 270.730469 167.984375 272.003906 164.921875 C 273.253906 161.859375 276.773438 160.429688 279.832031 161.679688 C 312.503906 175.183594 331.246094 195.375 331.246094 217.101562 C 331.246094 257.410156 268.152344 288.992188 187.617188 288.992188 " fill-opacity="1" fill-rule="nonzero"/></g><g clip-path="url(#3c5da93bbe)"><path fill="#040606" d="M 145.714844 98.035156 C 124.371094 98.035156 101.316406 168.289062 91.753906 218.226562 C 91.855469 225.476562 124.753906 241.074219 187.617188 241.074219 C 250.480469 241.074219 283.351562 225.476562 283.351562 217.101562 C 273.917969 168.316406 250.835938 98.035156 229.492188 98.035156 C 223.21875 98.035156 218.117188 102.886719 212.226562 108.554688 C 205.621094 114.832031 198.148438 121.980469 187.617188 121.980469 C 177.085938 121.980469 169.613281 114.832031 163.007812 108.554688 C 157.117188 102.910156 152.015625 98.035156 145.714844 98.035156 Z M 187.617188 253.046875 C 134.085938 253.046875 79.894531 240.714844 79.894531 217.101562 C 84.152344 194.253906 106.824219 86.035156 145.714844 86.035156 C 156.808594 86.035156 164.511719 93.390625 171.296875 99.875 C 176.984375 105.3125 181.878906 110.007812 187.617188 110.007812 C 193.355469 110.007812 198.25 105.3125 203.9375 99.875 C 210.722656 93.390625 218.425781 86.035156 229.492188 86.035156 C 268.382812 86.035156 291.082031 194.253906 295.238281 215.953125 C 295.339844 240.691406 241.171875 253.046875 187.617188 253.046875 " fill-opacity="1" fill-rule="nonzero"/></g><path fill="#040606" d="M 187.617188 229.074219 C 137.070312 229.074219 85.886719 216.746094 85.886719 193.128906 C 85.886719 189.835938 88.566406 187.15625 91.855469 187.15625 C 95.171875 187.15625 97.847656 189.835938 97.847656 193.128906 C 97.847656 202.90625 132.8125 217.101562 187.617188 217.101562 C 242.421875 217.101562 277.386719 202.90625 277.386719 193.128906 C 277.386719 189.835938 280.0625 187.15625 283.351562 187.15625 C 286.667969 187.15625 289.371094 189.835938 289.371094 193.128906 C 289.371094 216.71875 238.1875 229.074219 187.617188 229.074219 " fill-opacity="1" fill-rule="nonzero"/></svg>