<svg xmlns="http://www.w3.org/2000/svg" xmlns:xlink="http://www.w3.org/1999/xlink" width="500" zoomAndPan="magnify" viewBox="0 0 375 374.999991" height="500" preserveAspectRatio="xMidYMid meet" version="1.0"><defs><clipPath id="ca038741ed"><path d="M 69.761719 48.777344 L 305.261719 48.777344 L 305.261719 326.277344 L 69.761719 326.277344 Z M 69.761719 48.777344 " clip-rule="nonzero"/></clipPath></defs><g clip-path="url(#ca038741ed)"><path fill="#000000" d="M 275.042969 48.730469 C 274.289062 48.753906 273.535156 48.898438 272.851562 49.15625 L 251.859375 57.050781 L 250.75 54.152344 C 249.925781 51.820312 247.734375 50.238281 245.238281 50.191406 C 243.210938 50.121094 241.304688 51.089844 240.148438 52.738281 C 238.96875 54.410156 238.734375 56.53125 239.464844 58.417969 L 240.597656 61.410156 C 228.390625 66.664062 218.234375 75.785156 211.757812 87.425781 L 208.90625 92.585938 L 202.566406 103.992188 C 202.566406 103.992188 202.566406 103.96875 202.566406 103.992188 L 193.164062 120.910156 C 190.3125 121.050781 187.464844 121.171875 184.496094 121.171875 C 169.957031 121.171875 156.785156 119.496094 147.738281 116.976562 C 143.191406 115.726562 139.679688 114.195312 137.769531 112.945312 C 137.132812 112.523438 137.015625 112.355469 136.78125 112.121094 C 140.410156 108.703125 156.714844 103.070312 184.496094 103.070312 C 186.144531 103.070312 187.628906 103.167969 189.207031 103.191406 L 195.78125 91.335938 C 191.917969 91.125 188.121094 91.007812 184.496094 91.007812 C 162.605469 91.007812 134.257812 94.824219 126.4375 105.523438 C 126.273438 105.734375 112.109375 125.292969 112.109375 133.234375 C 112.109375 133.660156 112.253906 134.011719 112.300781 134.4375 C 86.074219 156.304688 69.886719 191.441406 69.886719 235.789062 C 69.886719 262.464844 83.601562 285.488281 105.019531 301.347656 C 126.4375 317.207031 155.558594 326.277344 187.511719 326.277344 C 219.484375 326.277344 248.605469 317.066406 270 301.136719 C 291.417969 285.230469 305.132812 262.230469 305.132812 235.789062 C 305.132812 190.121094 285.859375 154.300781 256.785156 132.644531 C 256.195312 124.46875 242.929688 106.042969 242.550781 105.546875 C 238.96875 100.621094 231.03125 97.179688 221.417969 94.871094 L 222.289062 93.292969 C 227.402344 84.125 235.316406 76.9375 244.835938 72.671875 L 245.734375 75.03125 C 246.886719 78.140625 250.375 79.742188 253.484375 78.566406 C 256.617188 77.386719 258.195312 73.898438 257.019531 70.789062 L 256.101562 68.335938 L 277.09375 60.46875 C 279.851562 59.453125 281.5 56.625 281.003906 53.726562 C 280.488281 50.828125 277.964844 48.730469 275.042969 48.730469 Z M 215.289062 105.921875 C 224.480469 107.808594 230.230469 110.257812 232.230469 112.121094 C 231.996094 112.332031 231.855469 112.523438 231.21875 112.945312 C 229.308594 114.195312 225.800781 115.726562 221.25 116.976562 C 217.433594 118.035156 212.769531 118.90625 207.679688 119.589844 Z M 238.96875 122.136719 C 241.867188 126.824219 244.484375 131.375 244.8125 132.953125 L 244.8125 132.976562 C 244.765625 133.070312 243.46875 134.71875 240.40625 136.324219 C 237.414062 137.855469 232.960938 139.433594 227.589844 140.777344 C 225.726562 141.222656 223.585938 141.648438 221.441406 142.070312 C 220.589844 142.214844 219.859375 142.402344 218.988281 142.566406 C 217.152344 142.875 215.078125 143.132812 213.074219 143.414062 C 211.519531 143.605469 210.035156 143.863281 208.410156 144.050781 C 206.546875 144.238281 204.5 144.359375 202.519531 144.523438 C 200.707031 144.664062 198.9375 144.851562 197.054688 144.945312 C 193.09375 145.183594 188.902344 145.300781 184.496094 145.300781 C 180.183594 145.300781 176.082031 145.183594 172.171875 144.96875 C 170.261719 144.875 168.472656 144.6875 166.632812 144.546875 C 164.84375 144.40625 162.980469 144.289062 161.285156 144.097656 C 159.046875 143.863281 156.949219 143.582031 154.828125 143.273438 C 153.675781 143.109375 152.425781 142.96875 151.320312 142.777344 C 148.421875 142.308594 145.664062 141.789062 143.144531 141.199219 C 132.210938 138.679688 125.046875 134.25 124.292969 133.140625 C 124.765625 131.160156 127.214844 126.753906 130.019531 122.160156 C 130.394531 122.441406 130.773438 122.773438 131.148438 123.03125 C 134.753906 125.386719 139.207031 127.132812 144.507812 128.59375 C 155.089844 131.539062 169.0625 133.234375 184.496094 133.234375 C 199.925781 133.234375 213.898438 131.539062 224.480469 128.59375 C 229.78125 127.132812 234.234375 125.386719 237.839844 123.03125 C 238.214844 122.773438 238.59375 122.441406 238.96875 122.136719 Z M 250.871094 143.816406 C 276.082031 163.28125 293.070312 194.316406 293.070312 235.789062 C 293.070312 258.105469 281.78125 277.359375 262.816406 291.472656 C 243.847656 305.566406 217.152344 314.214844 187.511719 314.214844 C 157.84375 314.214844 131.171875 305.707031 112.207031 291.660156 C 93.214844 277.59375 81.953125 258.386719 81.953125 235.789062 C 81.953125 194.90625 96.605469 164.246094 119.34375 144.804688 C 124.269531 148.222656 131.339844 150.765625 139.324219 152.652344 C 139.703125 152.769531 140.03125 152.863281 140.433594 152.960938 C 149.859375 155.128906 161.214844 156.566406 173.632812 157.105469 C 177.191406 157.269531 180.796875 157.367188 184.496094 157.367188 C 187.933594 157.367188 191.65625 157.269531 195.570312 157.082031 C 199.410156 156.917969 203.109375 156.636719 206.714844 156.304688 C 206.878906 156.28125 207.042969 156.28125 207.207031 156.257812 C 211.261719 155.859375 215.125 155.386719 218.800781 154.796875 C 218.964844 154.773438 219.132812 154.773438 219.273438 154.726562 C 223.113281 154.113281 226.765625 153.40625 230.109375 152.582031 C 230.15625 152.582031 230.207031 152.558594 230.253906 152.558594 C 233.078125 151.851562 235.742188 151.074219 238.285156 150.203125 C 238.546875 150.109375 238.804688 150.011719 239.066406 149.917969 C 241.515625 149.070312 243.824219 148.105469 245.875 147.066406 C 245.898438 147.042969 245.921875 147.042969 245.945312 147.019531 C 245.992188 146.996094 246.015625 146.972656 246.039062 146.949219 C 247.875 145.984375 249.457031 144.945312 250.871094 143.816406 Z M 250.871094 143.816406 " fill-opacity="1" fill-rule="nonzero"/></g></svg>