<svg xmlns="http://www.w3.org/2000/svg" xmlns:xlink="http://www.w3.org/1999/xlink" width="500" zoomAndPan="magnify" viewBox="0 0 375 374.999991" height="500" preserveAspectRatio="xMidYMid meet" version="1.0"><defs><clipPath id="ff1fc58f51"><path d="M 30 126.429688 L 342 126.429688 L 342 248.679688 L 30 248.679688 Z M 30 126.429688 " clip-rule="nonzero"/></clipPath></defs><g clip-path="url(#ff1fc58f51)"><path fill="#100f0d" d="M 327.128906 238.066406 L 51.636719 238.066406 L 51.636719 227.453125 L 327.128906 227.453125 Z M 41.039062 185 C 41.039062 182.09375 41.441406 178.960938 42.085938 175.804688 L 62.230469 183.371094 L 62.230469 216.839844 L 49.707031 216.839844 C 46.964844 210.714844 41.039062 196.199219 41.039062 185 Z M 193.839844 207.722656 L 213.972656 139.164062 L 313.933594 182.078125 C 317.164062 183.464844 320.066406 185.429688 322.550781 187.917969 C 330.191406 195.570312 332.589844 206.859375 328.949219 216.839844 L 72.828125 216.839844 L 72.828125 179.691406 C 72.828125 177.480469 71.457031 175.5 69.390625 174.722656 L 44.886719 165.523438 C 46.480469 160.730469 48.234375 156.488281 49.472656 153.695312 L 192.292969 175.375 L 183.675781 204.726562 Z M 330.042969 180.414062 C 326.597656 176.964844 322.585938 174.242188 318.109375 172.320312 L 212.660156 127.058594 C 211.269531 126.457031 209.6875 126.488281 208.316406 127.132812 C 206.945312 127.777344 205.917969 128.980469 205.488281 130.4375 L 195.3125 165.097656 L 48.851562 142.867188 L 39.488281 133.488281 L 31.996094 140.992188 L 39.964844 148.976562 C 36.859375 155.917969 30.441406 171.851562 30.441406 185 C 30.441406 199.96875 38.761719 218.554688 41.039062 223.359375 L 41.039062 243.371094 C 41.039062 246.300781 43.410156 248.679688 46.335938 248.679688 L 332.425781 248.679688 C 335.351562 248.679688 337.722656 246.300781 337.722656 243.371094 L 337.722656 223.34375 C 344.375 208.855469 341.363281 191.753906 330.042969 180.414062 " fill-opacity="1" fill-rule="nonzero"/></g></svg>