<svg xmlns="http://www.w3.org/2000/svg" xmlns:xlink="http://www.w3.org/1999/xlink" width="500" zoomAndPan="magnify" viewBox="0 0 375 374.999991" height="500" preserveAspectRatio="xMidYMid meet" version="1.0"><defs><clipPath id="7570ef533b"><path d="M 56.25 73.050781 L 318.75 73.050781 L 318.75 301.800781 L 56.25 301.800781 Z M 56.25 73.050781 " clip-rule="nonzero"/></clipPath></defs><g clip-path="url(#7570ef533b)"><path fill="#000000" d="M 318.738281 136.90625 C 318.753906 132.496094 316.589844 128.199219 312.6875 125.65625 L 262.851562 93.164062 C 260.621094 91.652344 258.160156 90.578125 255.527344 89.988281 L 232.847656 84.882812 C 231.890625 83.511719 230.6875 82.3125 229.277344 81.359375 L 218.148438 73.875 C 217.355469 73.339844 216.40625 73.085938 215.542969 73.085938 C 215.335938 73.085938 201.535156 73.085938 187.6875 73.085938 C 187.570312 73.085938 187.453125 73.085938 187.332031 73.085938 C 173.484375 73.085938 159.683594 73.085938 159.476562 73.085938 C 158.613281 73.085938 157.667969 73.34375 156.871094 73.875 L 145.746094 81.355469 C 144.332031 82.308594 143.128906 83.507812 142.175781 84.878906 L 119.496094 89.984375 C 116.863281 90.578125 114.402344 91.648438 112.171875 93.164062 L 62.328125 125.65625 C 58.429688 128.199219 56.261719 132.5 56.277344 136.90625 C 56.261719 138.933594 56.699219 140.992188 57.648438 142.914062 L 63.410156 154.597656 L 73.023438 174.378906 C 74.929688 178.296875 78.457031 180.816406 82.355469 181.617188 C 85.753906 182.355469 89.429688 181.789062 92.53125 179.734375 C 92.640625 179.664062 102.691406 173.15625 109.828125 168.707031 L 109.828125 286.835938 C 109.828125 295.0625 116.523438 301.753906 124.753906 301.753906 L 250.265625 301.753906 C 258.496094 301.753906 265.191406 295.0625 265.191406 286.835938 L 265.191406 168.710938 C 272.328125 173.160156 282.382812 179.667969 282.488281 179.734375 C 285.589844 181.789062 289.265625 182.359375 292.664062 181.621094 C 296.566406 180.820312 300.09375 178.296875 301.996094 174.382812 L 311.605469 154.601562 L 317.367188 142.914062 C 318.320312 140.992188 318.757812 138.9375 318.738281 136.90625 Z M 309.058594 138.613281 L 303.300781 150.46875 L 293.480469 170.378906 C 292.890625 171.574219 291.8125 172.335938 290.621094 172.574219 C 289.65625 172.726562 288.625 172.535156 287.683594 171.914062 C 287.574219 171.84375 276.378906 164.617188 269.117188 160.152344 C 266.578125 158.589844 263.710938 158.523438 261.296875 159.519531 C 258.203125 160.761719 255.839844 163.746094 255.839844 167.558594 L 255.839844 188.871094 C 255.839844 189.140625 255.867188 189.402344 255.910156 189.660156 L 255.910156 209.816406 C 255.867188 210.074219 255.839844 210.335938 255.839844 210.605469 L 255.839844 286.835938 C 255.839844 289.949219 253.304688 292.480469 250.191406 292.480469 L 124.828125 292.480469 C 121.710938 292.480469 119.179688 289.949219 119.179688 286.835938 L 119.179688 210.605469 C 119.179688 210.335938 119.148438 210.074219 119.105469 209.816406 L 119.105469 189.660156 C 119.148438 189.402344 119.179688 189.136719 119.179688 188.867188 L 119.179688 167.554688 C 119.179688 163.742188 116.816406 160.757812 113.71875 159.515625 C 111.308594 158.523438 108.441406 158.585938 105.898438 160.152344 C 98.644531 164.617188 87.449219 171.839844 87.332031 171.914062 C 86.394531 172.53125 85.359375 172.722656 84.398438 172.570312 C 83.207031 172.332031 82.125 171.570312 81.539062 170.378906 L 71.714844 150.460938 L 65.957031 138.613281 C 65.695312 138.078125 65.566406 137.515625 65.554688 136.953125 C 65.574219 135.636719 66.230469 134.363281 67.398438 133.601562 L 117.480469 100.90625 C 117.511719 100.890625 117.539062 100.871094 117.566406 100.851562 C 118.835938 99.980469 120.242188 99.371094 121.738281 99.035156 L 139.59375 95.011719 L 139.351562 101.53125 C 139.105469 108.207031 142.605469 114.324219 148.484375 117.503906 L 148.824219 117.6875 C 149.070312 117.835938 149.3125 117.992188 149.570312 118.128906 L 178.058594 133.511719 C 180.09375 136.203125 183.800781 137.542969 187.507812 137.539062 C 191.214844 137.542969 194.925781 136.203125 196.957031 133.511719 L 225.449219 118.128906 C 225.703125 117.992188 225.949219 117.835938 226.195312 117.6875 L 226.535156 117.503906 C 232.410156 114.324219 235.910156 108.207031 235.664062 101.53125 L 235.421875 95.011719 L 253.277344 99.035156 C 254.777344 99.371094 256.179688 99.984375 257.449219 100.851562 C 257.476562 100.871094 257.507812 100.890625 257.535156 100.90625 L 307.617188 133.605469 C 308.785156 134.367188 309.441406 135.636719 309.460938 136.957031 C 309.445312 137.519531 309.320312 138.082031 309.058594 138.613281 Z M 172.007812 119.667969 L 153.355469 109.589844 C 150.652344 107.804688 149.246094 104.578125 149.832031 101.34375 C 150.914062 95.414062 151.78125 90.394531 151.976562 89.601562 C 152.269531 88.609375 152.90625 87.730469 153.773438 87.152344 L 157.375 84.742188 L 168.332031 110.855469 Z M 217.644531 84.742188 L 221.246094 87.152344 C 222.113281 87.730469 222.75 88.605469 223.042969 89.601562 C 223.238281 90.394531 224.105469 95.414062 225.191406 101.34375 C 225.773438 104.578125 224.367188 107.804688 221.664062 109.589844 L 203.011719 119.667969 L 206.6875 110.855469 Z M 208.527344 82.363281 L 198.132812 107.265625 L 189.476562 127.894531 C 189.042969 128.132812 188.277344 128.253906 187.507812 128.257812 C 186.738281 128.253906 185.972656 128.132812 185.542969 127.894531 L 176.890625 107.277344 L 166.492188 82.363281 Z M 208.527344 82.363281 " fill-opacity="1" fill-rule="nonzero"/></g></svg>