<svg xmlns="http://www.w3.org/2000/svg" xmlns:xlink="http://www.w3.org/1999/xlink" width="500" zoomAndPan="magnify" viewBox="0 0 375 374.999991" height="500" preserveAspectRatio="xMidYMid meet" version="1.0"><defs><clipPath id="67cec99ffb"><path d="M 125 56.25 L 250 56.25 L 250 318.75 L 125 318.75 Z M 125 56.25 " clip-rule="nonzero"/></clipPath></defs><path fill="#100f0d" d="M 163.105469 82.375 C 162.953125 82.375 162.785156 82.367188 162.621094 82.34375 C 160.921875 82.078125 159.761719 80.476562 160.039062 78.773438 L 162.070312 65.890625 C 162.347656 64.195312 163.933594 63.035156 165.632812 63.304688 C 167.324219 63.570312 168.484375 65.171875 168.214844 66.867188 L 166.175781 79.757812 C 165.933594 81.289062 164.613281 82.375 163.105469 82.375 " fill-opacity="1" fill-rule="nonzero"/><path fill="#100f0d" d="M 211.660156 82.375 C 210.152344 82.375 208.832031 81.289062 208.589844 79.757812 L 206.550781 66.867188 C 206.28125 65.171875 207.441406 63.570312 209.132812 63.304688 C 210.824219 63.027344 212.417969 64.195312 212.695312 65.890625 L 214.726562 78.773438 C 215.003906 80.476562 213.84375 82.078125 212.144531 82.34375 C 211.980469 82.367188 211.8125 82.375 211.660156 82.375 " fill-opacity="1" fill-rule="nonzero"/><path fill="#100f0d" d="M 236.492188 97.480469 L 230.921875 94.171875 C 227.074219 91.890625 224.429688 88.054688 223.667969 83.640625 L 223.027344 79.902344 L 231.519531 79.902344 C 233.238281 79.902344 234.628906 78.507812 234.628906 76.785156 C 234.628906 75.074219 233.238281 73.671875 231.519531 73.671875 L 144.265625 73.671875 C 142.546875 73.671875 141.15625 75.074219 141.15625 76.785156 C 141.15625 78.507812 142.546875 79.902344 144.265625 79.902344 L 151.738281 79.902344 L 151.097656 83.640625 C 150.335938 88.054688 147.691406 91.890625 143.84375 94.171875 L 138.273438 97.480469 C 136.789062 98.359375 136.304688 100.265625 137.179688 101.75 C 137.753906 102.730469 138.789062 103.273438 139.859375 103.273438 C 140.394531 103.273438 140.9375 103.136719 141.4375 102.84375 L 147.007812 99.535156 C 152.433594 96.320312 156.152344 90.917969 157.226562 84.695312 L 158.054688 79.902344 L 192.402344 79.902344 L 192.402344 108.109375 C 192.402344 114.710938 189.097656 120.796875 183.5625 124.382812 L 177.5625 128.257812 C 176.121094 129.191406 175.707031 131.113281 176.636719 132.566406 C 177.230469 133.484375 178.234375 133.988281 179.253906 133.988281 C 179.828125 133.988281 180.410156 133.832031 180.9375 133.492188 L 186.929688 129.613281 C 194.257812 124.875 198.621094 116.835938 198.621094 108.109375 L 198.621094 79.902344 L 216.710938 79.902344 L 217.539062 84.695312 C 218.613281 90.917969 222.332031 96.320312 227.757812 99.535156 L 233.328125 102.84375 C 233.828125 103.136719 234.371094 103.273438 234.90625 103.273438 C 235.976562 103.273438 237.011719 102.730469 237.585938 101.75 C 238.460938 100.265625 237.976562 98.359375 236.492188 97.480469 " fill-opacity="1" fill-rule="nonzero"/><path fill="#100f0d" d="M 190.03125 68.15625 C 190.03125 69.617188 188.847656 70.800781 187.382812 70.800781 C 185.917969 70.800781 184.734375 69.617188 184.734375 68.15625 C 184.734375 66.6875 185.917969 65.503906 187.382812 65.503906 C 188.847656 65.503906 190.03125 66.6875 190.03125 68.15625 " fill-opacity="1" fill-rule="nonzero"/><g clip-path="url(#67cec99ffb)"><path fill="#100f0d" d="M 240.296875 311.710938 C 240.28125 312.261719 239.828125 312.699219 239.269531 312.699219 L 210 312.699219 C 209.472656 312.699219 209.027344 312.300781 208.96875 311.765625 L 208.410156 306.535156 L 234.914062 306.535156 C 236.628906 306.535156 238.023438 305.148438 238.023438 303.417969 C 238.023438 301.707031 236.628906 300.304688 234.914062 300.304688 L 207.753906 300.304688 L 191.082031 143.574219 C 191.074219 143.535156 191.074219 143.496094 191.066406 143.460938 C 190.800781 141.605469 189.253906 140.257812 187.382812 140.257812 C 185.511719 140.257812 183.964844 141.605469 183.683594 143.574219 L 167.011719 300.304688 L 139.851562 300.304688 C 138.136719 300.304688 136.742188 301.707031 136.742188 303.417969 C 136.742188 305.148438 138.136719 306.535156 139.851562 306.535156 L 166.355469 306.535156 L 165.796875 311.765625 C 165.738281 312.300781 165.292969 312.699219 164.765625 312.699219 L 135.496094 312.699219 C 134.9375 312.699219 134.484375 312.261719 134.46875 311.710938 C 133.761719 289.085938 130.328125 174.28125 132.039062 136.128906 C 133.082031 112.699219 138.371094 74.5625 139.972656 63.433594 C 140.046875 62.921875 140.476562 62.558594 140.992188 62.558594 L 176.144531 62.558594 L 176.144531 115.613281 C 176.144531 117.332031 177.527344 118.726562 179.253906 118.726562 C 180.96875 118.726562 182.363281 117.332031 182.363281 115.613281 L 182.363281 62.558594 L 233.773438 62.558594 C 234.289062 62.558594 234.71875 62.921875 234.792969 63.425781 C 236.394531 74.5625 241.683594 112.699219 242.726562 136.128906 C 244.4375 174.28125 241.003906 289.085938 240.296875 311.710938 Z M 248.9375 135.851562 C 247.878906 112.132812 242.558594 73.746094 240.953125 62.542969 C 240.445312 59.003906 237.359375 56.328125 233.773438 56.328125 L 140.992188 56.328125 C 137.40625 56.328125 134.320312 59.003906 133.8125 62.550781 C 132.207031 73.746094 126.886719 112.132812 125.828125 135.851562 C 124.109375 174.222656 127.542969 289.238281 128.25 311.90625 C 128.371094 315.839844 131.558594 318.929688 135.496094 318.929688 L 164.765625 318.929688 C 168.484375 318.929688 171.585938 316.140625 171.980469 312.433594 L 187.382812 167.605469 L 202.785156 312.433594 C 203.179688 316.140625 206.28125 318.929688 210 318.929688 L 239.269531 318.929688 C 243.207031 318.929688 246.394531 315.839844 246.515625 311.90625 C 247.222656 289.238281 250.65625 174.222656 248.9375 135.851562 " fill-opacity="1" fill-rule="nonzero"/></g></svg>